<svg xmlns="http://www.w3.org/2000/svg" xmlns:xlink="http://www.w3.org/1999/xlink" viewBox="0,0,256,256" width="150px" height="150px" fill-rule="nonzero"><g fill="none" fill-rule="nonzero" stroke="none" stroke-width="1" stroke-linecap="butt" stroke-linejoin="miter" stroke-miterlimit="10" stroke-dasharray="" stroke-dashoffset="0" font-family="none" font-weight="none" font-size="none" text-anchor="none" style="mix-blend-mode: normal"><g transform="scale(2.56,2.56)"><path d="M13,27c-1.10457,0 -2,0.89543 -2,2c0,1.10457 0.89543,2 2,2c1.10457,0 2,-0.89543 2,-2c0,-1.10457 -0.89543,-2 -2,-2z" fill="#013365"></path><path d="M77,12c-0.55228,0 -1,0.44772 -1,1c0,0.55228 0.44772,1 1,1c0.55228,0 1,-0.44772 1,-1c0,-0.55228 -0.44772,-1 -1,-1z" fill="#ffc908"></path><path d="M50.25,13.083c-20.43454,0 -37,16.56546 -37,37c0,20.43454 16.56546,37 37,37c20.43454,0 37,-16.56546 37,-37c0,-20.43454 -16.56546,-37 -37,-37z" fill="#e6f6fc"></path><path d="M83,11c-2.20914,0 -4,1.79086 -4,4c0,2.20914 1.79086,4 4,4c2.20914,0 4,-1.79086 4,-4c0,-2.20914 -1.79086,-4 -4,-4z" fill="#ffc908"></path><path d="M87,22c-1.10457,0 -2,0.89543 -2,2c0,1.10457 0.89543,2 2,2c1.10457,0 2,-0.89543 2,-2c0,-1.10457 -0.89543,-2 -2,-2z" fill="#013365"></path><path d="M81,74c-1.10457,0 -2,0.89543 -2,2c0,1.10457 0.89543,2 2,2c1.10457,0 2,-0.89543 2,-2c0,-1.10457 -0.89543,-2 -2,-2zM15,59c-2.20914,0 -4,1.79086 -4,4c0,2.20914 1.79086,4 4,4c2.20914,0 4,-1.79086 4,-4c0,-2.20914 -1.79086,-4 -4,-4z" fill="#ffc908"></path><path d="M25,85c-1.10457,0 -2,0.89543 -2,2c0,1.10457 0.89543,2 2,2c1.10457,0 2,-0.89543 2,-2c0,-1.10457 -0.89543,-2 -2,-2z" fill="#013365"></path><path d="M18.5,51c-1.38071,0 -2.5,1.11929 -2.5,2.5c0,1.38071 1.11929,2.5 2.5,2.5c1.38071,0 2.5,-1.11929 2.5,-2.5c0,-1.38071 -1.11929,-2.5 -2.5,-2.5z" fill="#ffffff"></path><path d="M21,66c-0.55228,0 -1,0.44772 -1,1c0,0.55228 0.44772,1 1,1c0.55228,0 1,-0.44772 1,-1c0,-0.55228 -0.44772,-1 -1,-1z" fill="#ffc908"></path><path d="M80,33c-0.55228,0 -1,0.44772 -1,1c0,0.55228 0.44772,1 1,1c0.55228,0 1,-0.44772 1,-1c0,-0.55228 -0.44772,-1 -1,-1z" fill="#ffffff"></path><g><path d="M53.5,79.3c-7.609,0 -13.8,-6.19 -13.8,-13.8c0,-8.736 11.227,-22.266 13.8,-25.251c2.573,2.985 13.8,16.515 13.8,25.251c0,7.609 -6.191,13.8 -13.8,13.8z" fill="#013365"></path><path d="M53.5,41.327c3.268,3.868 13.1,16.172 13.1,24.173c0,7.223 -5.877,13.1 -13.1,13.1c-7.223,0 -13.1,-5.877 -13.1,-13.1c0,-8.001 9.832,-20.306 13.1,-24.173M53.5,39.185c0,0 -14.5,16.111 -14.5,26.315c0,8.008 6.492,14.5 14.5,14.5c8.008,0 14.5,-6.492 14.5,-14.5c0,-10.204 -14.5,-26.315 -14.5,-26.315z" fill="#ffffff"></path><path d="M48.595,53c-3.928,5.083 -10.511,18.917 3.905,23c-3.453,-3.794 -7.417,-9.833 -3.905,-23z" fill="#ffffff"></path><path d="M52.5,76.25c-0.022,0 -0.046,-0.003 -0.068,-0.01c-3.892,-1.102 -6.565,-2.999 -7.949,-5.638c-1.427,-2.72 -1.46,-6.271 -0.096,-10.268c0.045,-0.13 0.184,-0.203 0.317,-0.155c0.13,0.044 0.2,0.187 0.155,0.317c-0.919,2.694 -1.654,6.594 0.065,9.874c1.217,2.319 3.502,4.043 6.8,5.13c-0.762,-0.888 -1.685,-2.083 -2.482,-3.55c-0.065,-0.121 -0.021,-0.272 0.101,-0.339c0.121,-0.065 0.271,-0.022 0.339,0.101c0.992,1.824 2.189,3.225 3.003,4.119c0.075,0.082 0.087,0.205 0.028,0.3c-0.047,0.075 -0.128,0.119 -0.213,0.119z" fill="#ffffff"></path><path d="M48.234,69.255c-0.104,0 -0.202,-0.066 -0.237,-0.171c-1.378,-4.138 -1.368,-9.017 0.036,-14.883c-0.651,0.954 -1.479,2.311 -2.251,3.992c-0.058,0.126 -0.206,0.181 -0.332,0.123c-0.125,-0.058 -0.181,-0.206 -0.123,-0.332c1.146,-2.496 2.415,-4.29 3.069,-5.138c0.073,-0.093 0.203,-0.122 0.309,-0.07c0.107,0.053 0.162,0.173 0.131,0.288c-1.689,6.337 -1.809,11.525 -0.364,15.861c0.044,0.131 -0.027,0.272 -0.158,0.316c-0.027,0.01 -0.053,0.014 -0.08,0.014zM58.658,74.901c-0.09,0 -0.176,-0.048 -0.221,-0.133c-0.064,-0.122 -0.019,-0.273 0.104,-0.338c0.656,-0.348 1.262,-0.737 1.798,-1.158c0.109,-0.087 0.267,-0.066 0.351,0.042c0.086,0.108 0.066,0.266 -0.042,0.351c-0.56,0.439 -1.189,0.846 -1.872,1.207c-0.038,0.02 -0.078,0.029 -0.118,0.029zM61.996,72.262c-0.057,0 -0.112,-0.019 -0.159,-0.058c-0.106,-0.088 -0.121,-0.245 -0.033,-0.352c3.106,-3.756 2.085,-8.8 0.681,-12.369c-0.051,-0.129 0.013,-0.273 0.141,-0.324c0.131,-0.049 0.274,0.013 0.324,0.141c1.454,3.695 2.502,8.928 -0.761,12.871c-0.049,0.059 -0.121,0.091 -0.193,0.091z" fill="#ffffff"></path><g fill="#ffffff"><path d="M61.74,57.463c-0.092,0 -0.18,-0.051 -0.224,-0.138c-0.756,-1.506 -1.677,-2.987 -2.594,-4.172c-0.084,-0.109 -0.063,-0.267 0.045,-0.352c0.109,-0.085 0.266,-0.065 0.352,0.045c0.935,1.21 1.874,2.721 2.645,4.254c0.062,0.123 0.012,0.273 -0.111,0.336c-0.037,0.018 -0.075,0.027 -0.113,0.027z"></path></g></g><g><path d="M70.346,47.3c-2.699,0 -4.896,-2.196 -4.896,-4.896c0,-2.706 3.16,-7.022 4.893,-9.083c1.354,1.62 4.897,6.138 4.897,9.083c0,2.7 -2.195,4.896 -4.894,4.896z" fill="#013365"></path><path d="M70.348,34.418c1.925,2.401 4.193,5.905 4.193,7.986c0,2.313 -1.882,4.195 -4.195,4.195c-2.313,0 -4.195,-1.882 -4.195,-4.195c-0.001,-2.254 2.48,-5.842 4.197,-7.986M70.345,32.25c0,0 -5.595,6.217 -5.595,10.155c0,3.09 2.505,5.595 5.595,5.595c3.09,0 5.595,-2.505 5.595,-5.595c0.001,-3.938 -5.595,-10.155 -5.595,-10.155z" fill="#ffffff"></path></g><g><path d="M35.221,49.8c-4.561,0 -8.271,-3.71 -8.271,-8.271c0,-5.112 6.381,-12.99 8.271,-15.211c1.89,2.221 8.27,10.099 8.27,15.211c-0.001,4.561 -3.711,8.271 -8.27,8.271z" fill="#013365"></path><path d="M35.221,27.396c2.792,3.362 7.57,9.98 7.57,14.134c0,4.174 -3.396,7.57 -7.57,7.57c-4.174,0 -7.57,-3.396 -7.57,-7.57c-0.001,-4.148 4.778,-10.77 7.57,-14.134M35.22,25.25c0,0 -8.97,9.967 -8.97,16.28c0,4.954 4.016,8.97 8.97,8.97c4.954,0 8.97,-4.016 8.97,-8.97c0.001,-6.313 -8.97,-16.28 -8.97,-16.28z" fill="#ffffff"></path><path d="M33.059,33.797c-2.33,3.015 -6.234,11.219 2.316,13.641c-2.048,-2.251 -4.399,-5.833 -2.316,-13.641z" fill="#ffffff"></path><path d="M35.375,47.688c-0.022,0 -0.046,-0.003 -0.068,-0.01c-2.336,-0.661 -3.943,-1.804 -4.777,-3.394c-0.859,-1.639 -0.881,-3.772 -0.063,-6.171c0.044,-0.129 0.184,-0.203 0.317,-0.155c0.13,0.044 0.2,0.187 0.155,0.317c-0.538,1.579 -0.971,3.863 0.033,5.776c0.665,1.269 1.884,2.233 3.628,2.873c-0.401,-0.493 -0.851,-1.11 -1.247,-1.841c-0.065,-0.121 -0.021,-0.272 0.101,-0.339c0.122,-0.065 0.273,-0.021 0.339,0.101c0.583,1.073 1.287,1.896 1.767,2.424c0.075,0.082 0.087,0.204 0.028,0.3c-0.047,0.075 -0.128,0.119 -0.213,0.119z" fill="#ffffff"></path><path d="M32.846,43.539c-0.104,0 -0.202,-0.066 -0.237,-0.171c-0.78,-2.342 -0.817,-5.076 -0.108,-8.33c-0.319,0.508 -0.678,1.141 -1.017,1.881c-0.058,0.126 -0.207,0.18 -0.332,0.123c-0.125,-0.058 -0.181,-0.206 -0.123,-0.332c0.683,-1.488 1.441,-2.56 1.832,-3.066c0.073,-0.094 0.203,-0.123 0.309,-0.07c0.107,0.053 0.162,0.173 0.131,0.288c-0.996,3.738 -1.067,6.796 -0.217,9.349c0.044,0.131 -0.027,0.272 -0.158,0.316c-0.028,0.008 -0.054,0.012 -0.08,0.012zM37.703,47.296c-0.082,0 -0.162,-0.04 -0.21,-0.115c-0.075,-0.115 -0.041,-0.271 0.075,-0.345c0.337,-0.218 0.646,-0.457 0.919,-0.713c0.1,-0.096 0.259,-0.091 0.353,0.011c0.095,0.101 0.09,0.259 -0.011,0.353c-0.294,0.277 -0.628,0.536 -0.991,0.77c-0.041,0.026 -0.088,0.039 -0.135,0.039zM39.431,45.656c-0.049,0 -0.099,-0.015 -0.142,-0.044c-0.114,-0.078 -0.143,-0.234 -0.064,-0.348c1.56,-2.269 0.911,-5.23 0.093,-7.315c-0.051,-0.129 0.013,-0.274 0.141,-0.324c0.13,-0.051 0.275,0.013 0.324,0.141c0.863,2.198 1.538,5.333 -0.146,7.782c-0.049,0.07 -0.127,0.108 -0.206,0.108z" fill="#ffffff"></path><g fill="#ffffff"><path d="M38.982,36.825c-0.092,0 -0.181,-0.051 -0.225,-0.14c-0.433,-0.88 -0.953,-1.742 -1.464,-2.427c-0.083,-0.11 -0.06,-0.268 0.051,-0.35c0.111,-0.082 0.268,-0.059 0.35,0.051c0.529,0.709 1.066,1.599 1.513,2.505c0.061,0.124 0.01,0.273 -0.114,0.335c-0.035,0.018 -0.073,0.026 -0.111,0.026z"></path></g></g></g></g></svg>