<svg xmlns="http://www.w3.org/2000/svg" version="1.1" xmlnsXlink="http://www.w3.org/1999/xlink" xmlnsSvgjs="http://svgjs.dev/svgjs" width="105" height="30" viewBox="0 0 2000 373"><g transform="matrix(1,0,0,1,-1.2121212121213603,0.7289672198731694)"><svg viewBox="0 0 396 74" data-background-color="#ffffff" preserveAspectRatio="xMidYMid meet" height="373" width="2000" xmlns="http://www.w3.org/2000/svg" xmlnsXlink="http://www.w3.org/1999/xlink"><g id="tight-bounds" transform="matrix(1,0,0,1,0.24000000000003752,-0.14462084254856222)"><svg viewBox="0 0 395.5199999999999 74.28924168509711" height="74.28924168509711" width="395.5199999999999"><g><svg viewBox="0 0 469.72085423950807 88.22614802065405" height="74.28924168509711" width="395.5199999999999"><g><rect width="6.630270898239451" height="88.22614802065405" x="50.21385324116534" y="0" fill="#000000" opacity="1" stroke-width="0" stroke="transparent" fill-opacity="1" class="rect-r$-0" data-fill-palette-color="primary" rx="1%" id="r$-0" data-palette-color="#001f3f"></rect></g><g transform="matrix(1,0,0,1,74.20085423950806,7.352179001721169)"><svg viewBox="0 0 395.52 73.52179001721171" height="73.52179001721171" width="395.52"><g id="textblocktransform"><svg viewBox="0 0 395.52 73.52179001721171" height="73.52179001721171" width="395.52" id="textblock"><g><svg viewBox="0 0 395.52 73.52179001721171" height="73.52179001721171" width="395.52"><g transform="matrix(1,0,0,1,0,0)"><svg width="395.52" viewBox="2.15 -38 261.43 48.6" height="73.52179001721171" data-palette-color="#001f3f"><path d="M13.1 10.6L13.1 10.6Q10.1 10.6 8 10.15 5.9 9.7 4.6 8.9 3.3 8.1 2.73 6.95 2.15 5.8 2.15 4.4L2.15 4.4Q2.15 3.4 2.6 2.55 3.05 1.7 3.8 1.05 4.55 0.4 5.5-0.08 6.45-0.55 7.45-0.8L7.45-0.8 7.45-1Q4.3-2.1 4.3-5.25L4.3-5.25Q4.3-7.25 5.58-8.4 6.85-9.55 8.55-10L8.55-10 8.55-10.25Q6.2-11.25 4.83-13.2 3.45-15.15 3.45-17.9L3.45-17.9Q3.45-19.85 4.17-21.43 4.9-23 6.23-24.1 7.55-25.2 9.35-25.8 11.15-26.4 13.3-26.4L13.3-26.4Q15.65-26.4 17.32-25.78 19-25.15 20.15-24.25L20.15-24.25Q20.2-27.15 21.28-28.2 22.35-29.25 23.8-29.25L23.8-29.25Q24.9-29.25 25.63-28.6 26.35-27.95 26.35-26.85L26.35-26.85Q26.35-25.8 25.68-25.13 25-24.45 23.8-24.45L23.8-24.45Q22.4-24.45 21.65-25.45L21.65-25.45 21.5-25.45 21.5-22.95Q22.05-22.2 22.65-21 23.25-19.8 23.25-17.9L23.25-17.9Q23.25-15.95 22.5-14.35 21.75-12.75 20.43-11.65 19.1-10.55 17.28-9.95 15.45-9.35 13.3-9.35L13.3-9.35Q11.9-9.35 10.65-9.65L10.65-9.65Q9.35-9.4 8.3-8.58 7.25-7.75 7.25-6.6L7.25-6.6Q7.25-5.35 8.2-4.85 9.15-4.35 11.4-4.35L11.4-4.35 17.3-4.35Q21.7-4.35 23.83-2.58 25.95-0.8 25.95 2.5L25.95 2.5Q25.95 6.2 22.7 8.4 19.45 10.6 13.1 10.6ZM13.35-11.5L13.35-11.5Q16.1-11.5 17.48-12.95 18.85-14.4 18.85-16.9L18.85-16.9 18.85-18.85Q18.85-21.35 17.48-22.8 16.1-24.25 13.35-24.25L13.35-24.25Q10.6-24.25 9.22-22.8 7.85-21.35 7.85-18.85L7.85-18.85 7.85-16.9Q7.85-14.4 9.22-12.95 10.6-11.5 13.35-11.5ZM5.8 4.15L5.8 4.15Q5.8 6.15 7.53 7.15 9.25 8.15 12.15 8.15L12.15 8.15 14.5 8.15Q18.25 8.15 20.38 6.9 22.5 5.65 22.5 3.55L22.5 3.55Q22.5 1.65 21.2 0.68 19.9-0.3 16.65-0.3L16.65-0.3 8.85-0.3Q7.25 0.4 6.53 1.55 5.8 2.7 5.8 4.15ZM28.95 0L28.95-2.3 32.65-2.3 32.65-34.15 28.95-34.8 28.95-36.55 36.75-38 36.75-2.3 40.45-2.3 40.45 0 28.95 0ZM56.3-1.85L56.3-1.85Q58.15-1.85 59.52-2.48 60.9-3.1 61.77-4.23 62.65-5.35 63.07-6.88 63.5-8.4 63.5-10.2L63.5-10.2 63.5-15.6Q63.5-17.4 63.07-18.93 62.65-20.45 61.77-21.58 60.9-22.7 59.52-23.33 58.15-23.95 56.3-23.95L56.3-23.95Q54.4-23.95 53.05-23.33 51.7-22.7 50.82-21.58 49.95-20.45 49.52-18.93 49.1-17.4 49.1-15.6L49.1-15.6 49.1-10.2Q49.1-8.4 49.52-6.88 49.95-5.35 50.82-4.23 51.7-3.1 53.05-2.48 54.4-1.85 56.3-1.85ZM56.3 0.6L56.3 0.6Q53.65 0.6 51.45-0.35 49.25-1.3 47.7-3.08 46.15-4.85 45.3-7.33 44.45-9.8 44.45-12.9L44.45-12.9Q44.45-15.95 45.3-18.45 46.15-20.95 47.7-22.73 49.25-24.5 51.45-25.45 53.65-26.4 56.3-26.4L56.3-26.4Q58.95-26.4 61.15-25.45 63.35-24.5 64.9-22.73 66.45-20.95 67.3-18.45 68.15-15.95 68.15-12.9L68.15-12.9Q68.15-9.8 67.3-7.33 66.45-4.85 64.9-3.08 63.35-1.3 61.15-0.35 58.95 0.6 56.3 0.6ZM87.24 0.6L87.24 0.6Q84.14 0.6 82.24-0.7 80.34-2 79.49-3.85L79.49-3.85 79.29-3.85 76.99 0 75.34 0 75.34-34.15 71.64-34.8 71.64-36.55 79.44-38 79.44-21.9 79.64-21.9Q80.49-23.75 82.34-25.08 84.19-26.4 87.24-26.4L87.24-26.4Q92.04-26.4 94.92-22.93 97.79-19.45 97.79-12.9L97.79-12.9Q97.79-6.35 94.92-2.88 92.04 0.6 87.24 0.6ZM86.04-2.25L86.04-2.25Q89.49-2.25 91.42-4.58 93.34-6.9 93.34-10.8L93.34-10.8 93.34-15Q93.34-18.9 91.42-21.23 89.49-23.55 86.04-23.55L86.04-23.55Q84.84-23.55 83.64-23.2 82.44-22.85 81.52-22.2 80.59-21.55 80.02-20.58 79.44-19.6 79.44-18.4L79.44-18.4 79.44-7.4Q79.44-6.2 80.02-5.23 80.59-4.25 81.52-3.6 82.44-2.95 83.64-2.6 84.84-2.25 86.04-2.25ZM110.94 0.6L110.94 0.6Q107.34 0.6 105.32-1.28 103.29-3.15 103.29-6.4L103.29-6.4Q103.29-8.25 103.89-9.68 104.49-11.1 105.87-12.05 107.24-13 109.44-13.5 111.64-14 114.79-14L114.79-14 118.49-14 118.49-17.8Q118.49-20.85 117.02-22.48 115.54-24.1 112.59-24.1L112.59-24.1Q111.29-24.1 110.19-23.88 109.09-23.65 108.39-23.25L108.39-23.25 108.39-23.15Q108.94-22.85 109.47-22.25 109.99-21.65 109.99-20.55L109.99-20.55Q109.99-19.25 109.24-18.53 108.49-17.8 107.24-17.8L107.24-17.8Q106.04-17.8 105.27-18.53 104.49-19.25 104.49-20.7L104.49-20.7Q104.49-21.8 105.14-22.83 105.79-23.85 106.99-24.65 108.19-25.45 109.97-25.93 111.74-26.4 113.99-26.4L113.99-26.4Q118.04-26.4 120.32-24.3 122.59-22.2 122.59-18.4L122.59-18.4 122.59-2.15 126.34-2.15 126.34-0.4Q125.79 0 124.87 0.3 123.94 0.6 122.79 0.6L122.79 0.6Q120.84 0.6 119.79-0.5 118.74-1.6 118.74-3.45L118.74-3.45 118.74-3.8 118.49-3.8Q118.14-2.95 117.57-2.15 116.99-1.35 116.09-0.75 115.19-0.15 113.92 0.23 112.64 0.6 110.94 0.6ZM112.69-2.15L112.69-2.15Q115.09-2.15 116.79-3.38 118.49-4.6 118.49-7.15L118.49-7.15 118.49-12 115.24-12Q113.09-12 111.64-11.68 110.19-11.35 109.34-10.73 108.49-10.1 108.12-9.2 107.74-8.3 107.74-7.1L107.74-7.1 107.74-6.05Q107.74-4.15 109.04-3.15 110.34-2.15 112.69-2.15ZM129.84 0L129.84-2.3 133.54-2.3 133.54-34.15 129.84-34.8 129.84-36.55 137.64-38 137.64-2.3 141.34-2.3 141.34 0 129.84 0ZM167.73 0.6L167.73 0.6Q162.93 0.6 160.06-2.88 157.18-6.35 157.18-12.9L157.18-12.9Q157.18-19.45 160.06-22.93 162.93-26.4 167.73-26.4L167.73-26.4Q170.73-26.4 172.61-25.1 174.48-23.8 175.33-21.95L175.33-21.95 175.53-21.95 175.53-34.15 171.78-34.8 171.78-36.55 179.63-38 179.63-3.25 183.33-2.6 183.33-0.9 175.53 0.6 175.53-3.9 175.33-3.9Q174.48-2.05 172.63-0.73 170.78 0.6 167.73 0.6ZM168.93-2.25L168.93-2.25Q170.13-2.25 171.33-2.6 172.53-2.95 173.46-3.6 174.38-4.25 174.96-5.23 175.53-6.2 175.53-7.4L175.53-7.4 175.53-18.4Q175.53-19.6 174.96-20.58 174.38-21.55 173.46-22.2 172.53-22.85 171.33-23.2 170.13-23.55 168.93-23.55L168.93-23.55Q165.48-23.55 163.56-21.23 161.63-18.9 161.63-15L161.63-15 161.63-10.8Q161.63-6.9 163.56-4.58 165.48-2.25 168.93-2.25ZM187.58 0L187.58-2.3 191.28-2.3 191.28-22.55 187.58-23.2 187.58-24.9 195.28-26.4 195.28-21.9 195.53-21.9Q195.88-22.7 196.41-23.5 196.93-24.3 197.71-24.95 198.48-25.6 199.51-26 200.53-26.4 201.88-26.4L201.88-26.4Q204.08-26.4 205.41-25.35 206.73-24.3 206.73-22.3L206.73-22.3Q206.73-20.8 205.98-19.95 205.23-19.1 204.03-19.1L204.03-19.1Q202.68-19.1 201.88-19.83 201.08-20.55 201.08-21.7L201.08-21.7Q201.08-22.7 201.51-23.33 201.93-23.95 202.48-24.05L202.48-24.05 202.48-24.15Q202.28-24.2 201.98-24.23 201.68-24.25 201.23-24.25L201.23-24.25Q200.18-24.25 199.13-23.73 198.08-23.2 197.26-22.38 196.43-21.55 195.91-20.5 195.38-19.45 195.38-18.4L195.38-18.4 195.38-2.3 200.08-2.3 200.08 0 187.58 0ZM221.33-1.85L221.33-1.85Q223.18-1.85 224.55-2.48 225.93-3.1 226.8-4.23 227.68-5.35 228.1-6.88 228.53-8.4 228.53-10.2L228.53-10.2 228.53-15.6Q228.53-17.4 228.1-18.93 227.68-20.45 226.8-21.58 225.93-22.7 224.55-23.33 223.18-23.95 221.33-23.95L221.33-23.95Q219.43-23.95 218.08-23.33 216.73-22.7 215.85-21.58 214.98-20.45 214.55-18.93 214.13-17.4 214.13-15.6L214.13-15.6 214.13-10.2Q214.13-8.4 214.55-6.88 214.98-5.35 215.85-4.23 216.73-3.1 218.08-2.48 219.43-1.85 221.33-1.85ZM221.33 0.6L221.33 0.6Q218.68 0.6 216.48-0.35 214.28-1.3 212.73-3.08 211.18-4.85 210.33-7.33 209.48-9.8 209.48-12.9L209.48-12.9Q209.48-15.95 210.33-18.45 211.18-20.95 212.73-22.73 214.28-24.5 216.48-25.45 218.68-26.4 221.33-26.4L221.33-26.4Q223.98-26.4 226.18-25.45 228.38-24.5 229.93-22.73 231.48-20.95 232.33-18.45 233.18-15.95 233.18-12.9L233.18-12.9Q233.18-9.8 232.33-7.33 231.48-4.85 229.93-3.08 228.38-1.3 226.18-0.35 223.98 0.6 221.33 0.6ZM237.43 10L237.43 7.7 241.13 7.7 241.13-22.55 237.43-23.2 237.43-24.9 245.23-26.4 245.23-21.9 245.43-21.9Q246.28-23.75 248.13-25.08 249.98-26.4 253.03-26.4L253.03-26.4Q257.83-26.4 260.7-22.93 263.58-19.45 263.58-12.9L263.58-12.9Q263.58-6.35 260.7-2.88 257.83 0.6 253.03 0.6L253.03 0.6Q250.03 0.6 248.15-0.7 246.28-2 245.43-3.85L245.43-3.85 245.23-3.85 245.23 7.7 249.93 7.7 249.93 10 237.43 10ZM251.83-2.25L251.83-2.25Q255.28-2.25 257.2-4.58 259.13-6.9 259.13-10.8L259.13-10.8 259.13-15Q259.13-18.9 257.2-21.23 255.28-23.55 251.83-23.55L251.83-23.55Q250.63-23.55 249.43-23.2 248.23-22.85 247.3-22.2 246.38-21.55 245.8-20.58 245.23-19.6 245.23-18.4L245.23-18.4 245.23-7.4Q245.23-6.2 245.8-5.23 246.38-4.25 247.3-3.6 248.23-2.95 249.43-2.6 250.63-2.25 251.83-2.25Z" opacity="1" transform="matrix(1,0,0,1,0,0)" fill="#000000" class="wordmark-text-0" data-fill-palette-color="primary" id="text-0"></path></svg></g></svg></g></svg></g></svg></g><g transform="matrix(1,0,0,1,0,18.711295559380375)"><svg viewBox="0 0 32.85712314106206 50.8035569018933" height="50.8035569018933" width="32.85712314106206"><g><svg xmlns="http://www.w3.org/2000/svg" xmlnsXlink="http://www.w3.org/1999/xlink" version="1.1" x="0" y="0" viewBox="17.49840901545396 2.906 61.50190492932694 95.09400787274457" enable-background="new 0 0 100 100" xmlSpace="preserve" height="50.8035569018933" width="32.85712314106206" class="icon-icon-0" data-fill-palette-color="accent" id="icon-0"><g fill="#013365" data-fill-palette-color="accent"><path fill="#000000" d="M68.945 39.073L47.964 2.906 25.525 40.562c0 0-28.193 54.421 21.097 57.438C46.622 98 100.853 98.191 68.945 39.073zM40.35 92.045c0 0 40.779-9.155 24.193-49.143C64.543 42.902 94.949 93.144 40.35 92.045z" data-fill-palette-color="accent"></path></g></svg></g></svg></g></svg></g><defs></defs></svg><rect width="395.5199999999999" height="74.28924168509711" fill="none" stroke="none" visibility="hidden"></rect></g></svg></g></svg>