<svg xmlns="http://www.w3.org/2000/svg" xmlns:xlink="http://www.w3.org/1999/xlink" viewBox="0,0,256,256" width="150px" height="150px" fill-rule="nonzero"><g fill="none" fill-rule="nonzero" stroke="none" stroke-width="1" stroke-linecap="butt" stroke-linejoin="miter" stroke-miterlimit="10" stroke-dasharray="" stroke-dashoffset="0" font-family="none" font-weight="none" font-size="none" text-anchor="none" style="mix-blend-mode: normal"><g transform="scale(2.56,2.56)"><path d="M77,12c-0.55228,0 -1,0.44772 -1,1c0,0.55228 0.44772,1 1,1c0.55228,0 1,-0.44772 1,-1c0,-0.55228 -0.44772,-1 -1,-1z" fill="#ffc908"></path><path d="M50,13c-20.43454,0 -37,16.56546 -37,37c0,20.43454 16.56546,37 37,37c20.43454,0 37,-16.56546 37,-37c0,-20.43454 -16.56546,-37 -37,-37z" fill="#e6f6fc"></path><path d="M83,11c-2.20914,0 -4,1.79086 -4,4c0,2.20914 1.79086,4 4,4c2.20914,0 4,-1.79086 4,-4c0,-2.20914 -1.79086,-4 -4,-4z" fill="#ffc908"></path><path d="M87,22c-1.10457,0 -2,0.89543 -2,2c0,1.10457 0.89543,2 2,2c1.10457,0 2,-0.89543 2,-2c0,-1.10457 -0.89543,-2 -2,-2z" fill="#013365"></path><path d="M81,74c-1.10457,0 -2,0.89543 -2,2c0,1.10457 0.89543,2 2,2c1.10457,0 2,-0.89543 2,-2c0,-1.10457 -0.89543,-2 -2,-2zM15,59c-2.20914,0 -4,1.79086 -4,4c0,2.20914 1.79086,4 4,4c2.20914,0 4,-1.79086 4,-4c0,-2.20914 -1.79086,-4 -4,-4z" fill="#ffc908"></path><path d="M25,85c-1.10457,0 -2,0.89543 -2,2c0,1.10457 0.89543,2 2,2c1.10457,0 2,-0.89543 2,-2c0,-1.10457 -0.89543,-2 -2,-2z" fill="#013365"></path><path d="M18.5,49c-1.38071,0 -2.5,1.11929 -2.5,2.5c0,1.38071 1.11929,2.5 2.5,2.5c1.38071,0 2.5,-1.11929 2.5,-2.5c0,-1.38071 -1.11929,-2.5 -2.5,-2.5zM79.5,32c-0.82843,0 -1.5,0.67157 -1.5,1.5c0,0.82843 0.67157,1.5 1.5,1.5c0.82843,0 1.5,-0.67157 1.5,-1.5c0,-0.82843 -0.67157,-1.5 -1.5,-1.5z" fill="#ffffff"></path><g><path d="M35,72.3c-4.025,0 -7.3,-3.274 -7.3,-7.3v-30c0,-4.025 3.274,-7.3 7.3,-7.3h30c4.025,0 7.3,3.274 7.3,7.3v30c0,4.025 -3.274,7.3 -7.3,7.3z" fill="#ffffff"></path><path d="M65,28.4c3.639,0 6.6,2.961 6.6,6.6v30c0,3.639 -2.961,6.6 -6.6,6.6h-30c-3.639,0 -6.6,-2.961 -6.6,-6.6v-30c0,-3.639 2.961,-6.6 6.6,-6.6h30M65,27h-30c-4.4,0 -8,3.6 -8,8v30c0,4.4 3.6,8 8,8h30c4.4,0 8,-3.6 8,-8v-30c0,-4.4 -3.6,-8 -8,-8z" fill="#013365"></path></g><path d="M68.5,47.875v1.75v14.375c0,2.475 -2.025,4.5 -4.5,4.5h-28c-2.475,0 -4.5,-2.025 -4.5,-4.5v-28c0,-2.475 2.025,-4.5 4.5,-4.5h25.375h2.625c2.475,0 4.5,2.025 4.5,4.5v3.375v2v1v1.125v2.875v1.5" fill="#ffffff"></path><g fill="#013365"><path d="M68.5,47.375c-0.276,0 -0.5,-0.224 -0.5,-0.5v-3.875c0,-0.276 0.224,-0.5 0.5,-0.5c0.276,0 0.5,0.224 0.5,0.5v3.875c0,0.276 -0.224,0.5 -0.5,0.5z"></path></g><g fill="#013365"><path d="M68.5,40.5c-0.276,0 -0.5,-0.224 -0.5,-0.5v-2c0,-0.276 0.224,-0.5 0.5,-0.5c0.276,0 0.5,0.224 0.5,0.5v2c0,0.276 -0.224,0.5 -0.5,0.5z"></path></g><g fill="#013365"><path d="M64,69h-28c-2.757,0 -5,-2.243 -5,-5v-28c0,-2.757 2.243,-5 5,-5h25.375c0.276,0 0.5,0.224 0.5,0.5c0,0.276 -0.224,0.5 -0.5,0.5h-25.375c-2.206,0 -4,1.794 -4,4v28c0,2.206 1.794,4 4,4h28c2.206,0 4,-1.794 4,-4v-14.375c0,-0.276 0.224,-0.5 0.5,-0.5c0.276,0 0.5,0.224 0.5,0.5v14.375c0,2.757 -2.243,5 -5,5z"></path></g><g><path d="M46.845,58.503v2.419c0,0.665 3.1,1.204 6.924,1.204c3.824,0 6.924,-0.539 6.924,-1.204v-2.419z" fill="#ffc908"></path><path d="M53.769,62.438c-0.74,0 -7.231,-0.043 -7.231,-1.516v-2.419c0,-0.173 0.137,-0.312 0.307,-0.312h13.848c0.17,0 0.307,0.14 0.307,0.312v2.419c0,1.473 -6.491,1.516 -7.231,1.516zM47.152,58.815v2.107c0.17,0.277 2.358,0.891 6.617,0.891c4.259,0 6.447,-0.614 6.624,-0.929l-0.006,-2.07h-13.235z" fill="#013365"></path><path d="M53.769,57.304c-3.82402,0 -6.924,0.53905 -6.924,1.204c0,0.66495 3.09998,1.204 6.924,1.204c3.82402,0 6.924,-0.53905 6.924,-1.204c0,-0.66495 -3.09998,-1.204 -6.924,-1.204z" fill="#ffc908"></path><path d="M53.769,60.024c-0.74,0 -7.231,-0.043 -7.231,-1.516c0,-1.473 6.491,-1.516 7.231,-1.516c0.74,0 7.231,0.043 7.231,1.516c0,1.473 -6.491,1.516 -7.231,1.516zM53.769,57.616c-4.258,0 -6.448,0.614 -6.624,0.929c0.177,0.241 2.367,0.855 6.624,0.855c4.097,0 6.28,-0.57 6.595,-0.891c-0.315,-0.323 -2.497,-0.893 -6.595,-0.893zM60.393,58.544h0.008z" fill="#013365"></path><path d="M46.845,54.504v2.419c0,0.665 3.1,1.204 6.924,1.204c3.824,0 6.924,-0.539 6.924,-1.204v-2.419z" fill="#ffc908"></path><path d="M53.769,58.439c-0.74,0 -7.231,-0.043 -7.231,-1.516v-2.419c0,-0.173 0.137,-0.312 0.307,-0.312h13.848c0.17,0 0.307,0.14 0.307,0.312v2.419c0,1.474 -6.491,1.516 -7.231,1.516zM47.152,54.816v2.107c0.17,0.277 2.358,0.891 6.617,0.891c4.259,0 6.447,-0.614 6.624,-0.929l-0.006,-2.07h-13.235z" fill="#013365"></path><path d="M53.769,53.306c-3.82402,0 -6.924,0.53905 -6.924,1.204c0,0.66495 3.09998,1.204 6.924,1.204c3.82402,0 6.924,-0.53905 6.924,-1.204c0,-0.66495 -3.09998,-1.204 -6.924,-1.204z" fill="#ffc908"></path><path d="M53.769,56.026c-0.74,0 -7.231,-0.043 -7.231,-1.516c0,-1.473 6.491,-1.516 7.231,-1.516c0.74,0 7.231,0.043 7.231,1.516c0,1.473 -6.491,1.516 -7.231,1.516zM53.769,53.617c-4.258,0 -6.448,0.614 -6.624,0.929c0.176,0.241 2.366,0.855 6.624,0.855c4.098,0 6.281,-0.57 6.596,-0.891c-0.315,-0.323 -2.497,-0.893 -6.596,-0.893zM60.393,54.546h0.008z" fill="#013365"></path><path d="M46.845,50.506v2.419c0,0.665 3.1,1.204 6.924,1.204c3.824,0 6.924,-0.539 6.924,-1.204v-2.419z" fill="#ffc908"></path><path d="M53.769,54.441c-0.74,0 -7.231,-0.043 -7.231,-1.516v-2.419c0,-0.173 0.137,-0.312 0.307,-0.312h13.848c0.17,0 0.307,0.14 0.307,0.312v2.419c0,1.473 -6.491,1.516 -7.231,1.516zM47.152,50.818v2.107c0.17,0.277 2.358,0.891 6.617,0.891c4.259,0 6.447,-0.614 6.624,-0.929l-0.006,-2.07h-13.235z" fill="#013365"></path><g><path d="M53.769,49.307c-3.82402,0 -6.924,0.53905 -6.924,1.204c0,0.66495 3.09998,1.204 6.924,1.204c3.82402,0 6.924,-0.53905 6.924,-1.204c0,-0.66495 -3.09998,-1.204 -6.924,-1.204z" fill="#ffc908"></path><path d="M53.769,52.027c-0.74,0 -7.231,-0.043 -7.231,-1.516c0,-1.474 6.491,-1.516 7.231,-1.516c0.74,0 7.231,0.043 7.231,1.516c0,1.473 -6.491,1.516 -7.231,1.516zM53.769,49.62c-4.258,0 -6.448,0.614 -6.624,0.929c0.176,0.241 2.366,0.855 6.624,0.855c4.098,0 6.281,-0.57 6.596,-0.891c-0.315,-0.324 -2.497,-0.893 -6.596,-0.893zM60.393,50.548h0.008z" fill="#013365"></path></g><g><path d="M46.845,46.508v2.419c0,0.665 3.1,1.204 6.924,1.204c3.824,0 6.924,-0.539 6.924,-1.204v-2.419z" fill="#ffc908"></path><path d="M53.769,50.442c-0.74,0 -7.231,-0.043 -7.231,-1.516v-2.418c0,-0.173 0.137,-0.312 0.307,-0.312h13.848c0.17,0 0.307,0.14 0.307,0.312v2.418c0,1.475 -6.491,1.516 -7.231,1.516zM47.152,46.82v2.106c0.17,0.277 2.358,0.891 6.617,0.891c4.259,0 6.447,-0.614 6.624,-0.929l-0.006,-2.069h-13.235z" fill="#013365"></path><g><path d="M53.769,45.309c-3.82402,0 -6.924,0.53905 -6.924,1.204c0,0.66495 3.09998,1.204 6.924,1.204c3.82402,0 6.924,-0.53905 6.924,-1.204c0,-0.66495 -3.09998,-1.204 -6.924,-1.204z" fill="#ffc908"></path><path d="M53.769,48.029c-0.74,0 -7.231,-0.043 -7.231,-1.516c0,-1.474 6.491,-1.516 7.231,-1.516c0.74,0 7.231,0.043 7.231,1.516c0,1.474 -6.491,1.516 -7.231,1.516zM53.769,45.622c-4.258,0 -6.448,0.614 -6.624,0.929c0.176,0.241 2.366,0.855 6.624,0.855c4.098,0 6.281,-0.57 6.596,-0.891c-0.315,-0.325 -2.497,-0.893 -6.596,-0.893zM60.393,46.55h0.008z" fill="#013365"></path></g></g><g><path d="M40.307,60.065v2.419c0,0.665 3.1,1.204 6.924,1.204c3.824,0 6.924,-0.539 6.924,-1.204v-2.419z" fill="#ffc908"></path><path d="M47.231,64c-0.74,0 -7.231,-0.043 -7.231,-1.516v-2.419c0,-0.173 0.137,-0.312 0.307,-0.312h13.849c0.17,0 0.307,0.14 0.307,0.312v2.419c-0.001,1.473 -6.491,1.516 -7.232,1.516zM40.614,60.377v2.107c0.17,0.277 2.36,0.891 6.617,0.891c4.257,0 6.447,-0.614 6.624,-0.929l-0.006,-2.07h-13.235z" fill="#013365"></path><g><path d="M47.231,58.866c-3.82402,0 -6.924,0.53905 -6.924,1.204c0,0.66495 3.09998,1.204 6.924,1.204c3.82402,0 6.924,-0.53905 6.924,-1.204c0,-0.66495 -3.09998,-1.204 -6.924,-1.204z" fill="#ffc908"></path><path d="M47.231,61.586c-0.74,0 -7.231,-0.043 -7.231,-1.516c0,-1.473 6.491,-1.516 7.231,-1.516c0.74,0 7.231,0.043 7.231,1.516c0,1.474 -6.49,1.516 -7.231,1.516zM47.231,59.178c-4.258,0 -6.447,0.614 -6.624,0.928c0.177,0.241 2.366,0.855 6.624,0.855c4.098,0 6.28,-0.57 6.595,-0.891c-0.314,-0.322 -2.496,-0.892 -6.595,-0.892zM53.856,60.106h0.008z" fill="#013365"></path></g></g><g><path d="M40.307,56.066v2.419c0,0.665 3.1,1.204 6.924,1.204c3.824,0 6.924,-0.539 6.924,-1.204v-2.419z" fill="#ffc908"></path><path d="M47.231,60.001c-0.74,0 -7.231,-0.043 -7.231,-1.516v-2.419c0,-0.173 0.137,-0.312 0.307,-0.312h13.849c0.17,0 0.307,0.14 0.307,0.312v2.419c-0.001,1.473 -6.491,1.516 -7.232,1.516zM40.614,56.378v2.107c0.17,0.277 2.358,0.891 6.617,0.891c4.259,0 6.447,-0.614 6.624,-0.929l-0.006,-2.07h-13.235z" fill="#013365"></path><g><path d="M47.231,54.867c-3.82402,0 -6.924,0.53905 -6.924,1.204c0,0.66495 3.09998,1.204 6.924,1.204c3.82402,0 6.924,-0.53905 6.924,-1.204c0,-0.66495 -3.09998,-1.204 -6.924,-1.204z" fill="#ffc908"></path><path d="M47.231,57.587c-0.74,0 -7.231,-0.043 -7.231,-1.516c0,-1.474 6.491,-1.516 7.231,-1.516c0.74,0 7.231,0.043 7.231,1.516c0,1.473 -6.49,1.516 -7.231,1.516zM47.231,55.179c-4.258,0 -6.447,0.614 -6.624,0.928c0.177,0.241 2.366,0.855 6.624,0.855c4.098,0 6.28,-0.57 6.595,-0.891c-0.314,-0.322 -2.496,-0.892 -6.595,-0.892zM53.856,56.107h0.008z" fill="#013365"></path></g></g><g><path d="M40.307,52.253v2.419c0,0.665 3.1,1.204 6.924,1.204c3.824,0 6.924,-0.539 6.924,-1.204v-2.419z" fill="#ffc908"></path><path d="M47.231,56.189c-0.74,0 -7.231,-0.043 -7.231,-1.516v-2.419c0,-0.173 0.137,-0.312 0.307,-0.312h13.849c0.17,0 0.307,0.14 0.307,0.312v2.419c-0.001,1.473 -6.491,1.516 -7.232,1.516zM40.614,52.566v2.107c0.17,0.277 2.358,0.891 6.617,0.891c4.259,0 6.447,-0.614 6.624,-0.929l-0.006,-2.07h-13.235z" fill="#013365"></path><g><path d="M47.231,51.054c-3.82402,0 -6.924,0.53905 -6.924,1.204c0,0.66495 3.09998,1.204 6.924,1.204c3.82402,0 6.924,-0.53905 6.924,-1.204c0,-0.66495 -3.09998,-1.204 -6.924,-1.204z" fill="#ffc908"></path><path d="M47.231,53.775c-0.74,0 -7.231,-0.043 -7.231,-1.516c0,-1.473 6.491,-1.516 7.231,-1.516c0.74,0 7.231,0.043 7.231,1.516c0,1.473 -6.49,1.516 -7.231,1.516zM47.231,51.367c-4.258,0 -6.447,0.614 -6.624,0.929c0.177,0.241 2.366,0.855 6.624,0.855c4.098,0 6.281,-0.57 6.596,-0.891c-0.315,-0.323 -2.496,-0.893 -6.596,-0.893zM53.856,52.295h0.008z" fill="#013365"></path></g></g><g><path d="M46.845,42.51v2.419c0,0.665 3.1,1.204 6.924,1.204c3.824,0 6.924,-0.539 6.924,-1.204v-2.419z" fill="#ffc908"></path><path d="M53.769,46.444c-0.74,0 -7.231,-0.043 -7.231,-1.516v-2.419c0,-0.173 0.137,-0.312 0.307,-0.312h13.848c0.17,0 0.307,0.14 0.307,0.312v2.419c0,1.475 -6.491,1.516 -7.231,1.516zM47.152,42.822v2.107c0.17,0.277 2.36,0.891 6.617,0.891c4.257,0 6.447,-0.614 6.624,-0.928l-0.006,-2.07z" fill="#013365"></path><g><path d="M53.769,41.311c-3.82402,0 -6.924,0.53905 -6.924,1.204c0,0.66495 3.09998,1.204 6.924,1.204c3.82402,0 6.924,-0.53905 6.924,-1.204c0,-0.66495 -3.09998,-1.204 -6.924,-1.204z" fill="#ffc908"></path><path d="M53.769,44.031c-0.74,0 -7.231,-0.043 -7.231,-1.516c0,-1.473 6.491,-1.516 7.231,-1.516c0.74,0 7.231,0.043 7.231,1.516c0,1.473 -6.491,1.516 -7.231,1.516zM53.769,41.623c-4.258,0 -6.447,0.614 -6.624,0.929c0.176,0.241 2.366,0.855 6.624,0.855c4.098,0 6.28,-0.57 6.595,-0.891c-0.315,-0.324 -2.497,-0.893 -6.595,-0.893zM60.393,42.552h0.008z" fill="#013365"></path></g></g><g><path d="M46.845,38.511v2.419c0,0.665 3.1,1.204 6.924,1.204c3.824,0 6.924,-0.539 6.924,-1.204v-2.419z" fill="#ffc908"></path><path d="M53.769,42.446c-0.74,0 -7.231,-0.043 -7.231,-1.516v-2.419c0,-0.173 0.137,-0.312 0.307,-0.312h13.848c0.17,0 0.307,0.14 0.307,0.312v2.419c0,1.475 -6.491,1.516 -7.231,1.516zM47.152,38.823v2.107c0.17,0.277 2.36,0.891 6.617,0.891c4.257,0 6.447,-0.614 6.624,-0.929l-0.006,-2.07h-13.235z" fill="#013365"></path><g><path d="M53.769,37.313c-3.82402,0 -6.924,0.53905 -6.924,1.204c0,0.66495 3.09998,1.204 6.924,1.204c3.82402,0 6.924,-0.53905 6.924,-1.204c0,-0.66495 -3.09998,-1.204 -6.924,-1.204z" fill="#ffc908"></path><path d="M53.769,40.033c-0.74,0 -7.231,-0.043 -7.231,-1.516c0,-1.473 6.49,-1.517 7.231,-1.517c0.74,0 7.231,0.043 7.231,1.516c0,1.475 -6.491,1.517 -7.231,1.517zM53.769,37.625c-4.258,0 -6.447,0.614 -6.624,0.928c0.176,0.241 2.366,0.855 6.624,0.855c4.098,0 6.28,-0.57 6.595,-0.891c-0.315,-0.323 -2.497,-0.892 -6.595,-0.892zM60.393,38.553h0.008z" fill="#013365"></path></g></g></g></g></g></svg>